<svg xmlns="http://www.w3.org/2000/svg" fill="none" viewBox="0 0 128 128" id="home">
  <path stroke="#34a853" stroke-width="7" d="M16 68.7117C16 59.2545 16 54.5259 17.7356 50.3153C18.041 49.5743 18.385 48.8498 18.766 48.1447C20.9314 44.1381 24.5953 41.1488 31.9231 35.1704L34.9206 32.7248C48.8454 21.3641 55.8079 15.6837 64 15.6837C72.1921 15.6837 79.1546 21.3641 93.0794 32.7248L96.0769 35.1704C103.405 41.1488 107.069 44.1381 109.234 48.1447C109.615 48.8498 109.959 49.5743 110.264 50.3153C112 54.5259 112 59.2545 112 68.7117V68.7117C112 87.7719 112 97.3019 106.698 103.69C105.79 104.783 104.783 105.79 103.69 106.698C97.3019 112 87.7719 112 68.7117 112H59.2883C40.2281 112 30.6981 112 24.3101 106.698C23.2168 105.79 22.2099 104.783 21.3024 103.69C16 97.3019 16 87.7719 16 68.7117V68.7117Z" class="colorStroke000000 svgStroke"></path>
  <path stroke="#34a853" stroke-width="7" d="M79 112V92C79 83.7157 72.2843 77 64 77V77C55.7157 77 49 83.7157 49 92V112" class="colorStroke000000 svgStroke"></path>
</svg>
