<svg xmlns="http://www.w3.org/2000/svg" fill="none" viewBox="0 0 128 128" id="announcement">
  <path stroke="#34a853" stroke-width="7" d="M18.6334 88.9507C17.7045 87.3418 17.2401 86.5373 16.9477 85.807C15.1334 81.2751 16.5228 76.0897 20.36 73.0721C20.9784 72.5858 21.7828 72.1213 23.3918 71.1924L37.3827 63.1147L50.3827 85.6314L36.3917 93.7091C34.7828 94.638 33.9784 95.1024 33.248 95.3948C28.7161 97.2091 23.5307 95.8197 20.5131 91.9825C20.0268 91.3641 19.5623 90.5597 18.6334 88.9507V88.9507Z" class="colorStroke000000 svgStroke"></path>
  <path stroke="#34a853" stroke-width="7" d="M59.7419 111.432C57.4802 112.738 54.5882 111.963 53.2824 109.702L42.1347 90.3934 50.3251 85.6646 61.4728 104.973C62.7786 107.235 62.0036 110.127 59.7419 111.432V111.432zM37.2361 62.6879L55.1574 38.5351C66.1307 23.7462 71.6174 16.3518 78.804 16.4681 79.1886 16.4743 79.5727 16.4964 79.9554 16.5342 87.1081 17.2416 91.7119 25.2157 100.92 41.1638V41.1638C109.832 56.6001 114.288 64.3182 111.489 70.7816 111.339 71.1284 111.175 71.469 110.997 71.8025 107.685 78.0183 98.8713 79.3409 81.2444 81.9862L50.9066 86.5389 37.2361 62.6879z" class="colorStroke000000 svgStroke"></path>
</svg>
